:SAMPLES-PER-SECOND 30
:FULLY-SPECIFIED
:DEGREES
665
root  -6.67046 39.5847 10.196 -18.1752 -74.4499 15.9543
RightUpLeg  3.33707 17.0944 0.0982947
RightLeg  43.217 8.7107 8.38737
RightFoot  43.568 -12.2126 23.9005
RightToes  -5.8209e-011 0 -3.6325e-017
Spine  -11.5215 22.0542 33.0362
Spine1  1.19946 22.0151 -22.1883
HEad  19.9248 -52.1171 -13.0654
LeftShoulder1  2.6016 -8.13848 -15.5597
LeftArm  -62.4299 -37.2338 -12.5503
LeftForeArm  115.231 -81.3777 -73.9839
LeftHand  -0.246645 0.021 5.37786
RightShoulder  2.88313 11.0676 12.7735
RightArm  107.34 56.4285 158.648
RightForeArm  48.767 51.3421 10.2416
RightHand  -0.24729 -0.0210522 -5.37781
LeftUpLeg  -8.71335 -5.54053 -8.14163
LeftLeg  58.4585 -73.5175 -58.5656
LeftFoot  7.68004 0.914914 -5.73814
LeftToes  -7.45818e-011 -3.37383e-011 1.08613e-011
666
root  -6.66667 39.594 10.1756 -18.6387 -74.7964 16.5038
RightUpLeg  3.1903 17.1867 -0.0689031
RightLeg  43.2514 8.77114 8.45651
RightFoot  43.4683 -12.1705 23.8695
RightToes  -5.8209e-011 0 -3.6325e-017
Spine  -11.7254 21.862 32.9917
Spine1  1.36305 21.7717 -21.9772
HEad  19.7322 -51.2467 -13.0999
LeftShoulder1  2.73264 -8.39137 -16.2455
LeftArm  -60.923 -36.9365 -13.4263
LeftForeArm  110.511 -81.1527 -69.8955
LeftHand  -0.246645 0.021 5.37786
RightShoulder  2.95691 11.2776 13.0127
RightArm  106.409 56.5847 157.203
RightForeArm  48.3076 50.7986 10.0445
RightHand  -0.24729 -0.0210522 -5.37781
LeftUpLeg  -8.78004 -5.67413 -8.13723
LeftLeg  56.962 -73.2687 -56.9862
LeftFoot  7.63763 0.861493 -5.43061
LeftToes  -7.45818e-011 -3.37383e-011 1.08613e-011
667
root  -6.66311 39.5967 10.1554 -19.1814 -75.0883 17.0868
RightUpLeg  3.08471 17.2293 -0.249435
RightLeg  43.3236 8.86522 8.56979
RightFoot  43.3565 -12.1238 23.8357
RightToes  -5.8209e-011 0 -3.6325e-017
Spine  -12.0959 21.5554 32.9027
Spine1  1.79768 21.4358 -21.7339
HEad  19.0041 -50.2475 -12.6672
LeftShoulder1  2.79512 -8.47629 -16.6357
LeftArm  -59.5268 -36.5836 -14.6248
LeftForeArm  106.411 -80.9197 -66.6809
LeftHand  -0.246645 0.021 5.37786
RightShoulder  3.05417 11.4977 13.404
RightArm  105.546 56.7035 155.703
RightForeArm  47.8516 50.4119 9.91624
RightHand  -0.24729 -0.0210522 -5.37781
LeftUpLeg  -8.79859 -5.82436 -8.14947
LeftLeg  55.6889 -73.0705 -55.6434
LeftFoot  7.52167 0.841968 -5.34307
LeftToes  -7.45818e-011 -3.37383e-011 1.08613e-011
668
root  -6.65915 39.5945 10.1284 -19.7385 -75.3498 17.579
RightUpLeg  3.07218 17.2976 -0.33552
RightLeg  43.4155 8.92035 8.65137
RightFoot  43.3352 -12.1019 23.8047
RightToes  -5.8209e-011 0 -3.6325e-017
Spine  -12.417 21.1708 32.8668
Spine1  2.40108 21.0786 -21.6027
HEad  18.0948 -49.3467 -12.0207
LeftShoulder1  2.81028 -8.46434 -16.7985
LeftArm  -57.9919 -36.3373 -16.1835
LeftForeArm  103.567 -80.7292 -64.3003
LeftHand  -0.246645 0.021 5.37786
RightShoulder  3.09862 11.581 13.6047
RightArm  104.436 56.8142 154.279
RightForeArm  47.4926 50.221 9.86321
RightHand  -0.24729 -0.0210522 -5.37781
LeftUpLeg  -8.73357 -5.82373 -8.13195
LeftLeg  55.0667 -72.9563 -54.984
LeftFoot  7.39545 0.839486 -5.35984
LeftToes  -7.45818e-011 -3.37383e-011 1.08613e-011
669
root  -6.65411 39.5903 10.0942 -20.3633 -75.6433 18.1255
RightUpLeg  3.04396 17.4828 -0.362374
RightLeg  43.5325 8.9097 8.67632
RightFoot  43.3721 -12.1319 23.8433
RightToes  -5.8209e-011 0 -3.6325e-017
Spine  -12.6478 20.8067 32.7374
Spine1  2.98205 20.737 -21.3631
HEad  17.4147 -48.596 -11.6506
LeftShoulder1  2.87149 -8.52448 -17.2231
LeftArm  -56.131 -36.1308 -17.7378
LeftForeArm  101.16 -80.5375 -62.0008
LeftHand  -0.246645 0.021 5.37786
RightShoulder  3.06114 11.522 13.4185
RightArm  102.932 56.9126 152.837
RightForeArm  47.1174 50.0455 9.81795
RightHand  -0.24729 -0.0210522 -5.37781
LeftUpLeg  -8.68189 -5.6981 -8.09773
LeftLeg  54.7077 -72.8311 -54.6027
LeftFoot  7.30847 0.821565 -5.27301
LeftToes  -7.45818e-011 -3.37383e-011 1.08613e-011
670
root  -6.64977 39.5872 10.0608 -21.0539 -75.9512 18.8089
RightUpLeg  2.935 17.7028 -0.428644
RightLeg  43.654 8.88653 8.69033
RightFoot  43.3915 -12.1838 23.9314
RightToes  -5.8209e-011 0 -3.6325e-017
Spine  -12.9754 20.4857 32.4411
Spine1  3.56668 20.3883 -20.9138
HEad  16.7614 -47.8518 -11.3931
LeftShoulder1  2.98349 -8.6564 -17.9411
LeftArm  -54.0267 -35.8065 -19.1938
LeftForeArm  98.386 -80.2988 -59.5568
LeftHand  -0.246645 0.021 5.37786
RightShoulder  3.03677 11.4966 13.2776
RightArm  101.25 57.0003 151.06
RightForeArm  46.7105 49.8504 9.76727
RightHand  -0.24729 -0.0210522 -5.37781
LeftUpLeg  -8.70133 -5.58494 -8.08362
LeftLeg  54.1817 -72.6593 -54.0512
LeftFoot  7.26557 0.787293 -5.07488
LeftToes  -7.45818e-011 -3.37383e-011 1.08613e-011
671
root  -6.64829 39.5872 10.0361 -21.722 -76.2169 19.4914
RightUpLeg  2.8353 17.8046 -0.547281
RightLeg  43.741 8.89341 8.72353
RightFoot  43.3995 -12.1847 23.9293
RightToes  -5.8209e-011 0 -3.6325e-017
Spine  -13.404 20.178 32.2471
Spine1  4.17412 20.0669 -20.6663
HEad  15.8423 -47.0482 -10.8024
LeftShoulder1  3.08053 -8.80869 -18.4654
LeftArm  -51.8097 -35.342 -20.8829
LeftForeArm  95.3188 -80.018 -57.129
LeftHand  -0.246645 0.021 5.37786
RightShoulder  3.12348 11.6272 13.7151
RightArm  99.4996 57.1318 148.659
RightForeArm  46.4431 49.7921 9.76234
RightHand  -0.24729 -0.0210522 -5.37781
LeftUpLeg  -8.71271 -5.52038 -8.09057
LeftLeg  53.5672 -72.5212 -53.4165
LeftFoot  7.24064 0.759694 -4.91236
LeftToes  -7.45818e-011 -3.37383e-011 1.08613e-011
672
root  -6.64843 39.5884 10.0189 -22.3781 -76.4483 20.1138
RightUpLeg  2.81836 17.8106 -0.665522
RightLeg  43.7987 8.90533 8.75285
RightFoot  43.4231 -12.1198 23.7962
RightToes  -5.8209e-011 0 -3.6325e-017
Spine  -13.6989 19.8832 32.3531
Spine1  4.63068 19.8373 -20.9251
HEad  14.9322 -46.2626 -10.0729
LeftShoulder1  3.15203 -9.032 -18.5997
LeftArm  -49.4745 -34.7736 -22.9722
LeftForeArm  92.4094 -79.7108 -54.6952
LeftHand  -0.246645 0.021 5.37786
RightShoulder  3.28251 11.8066 14.5923
RightArm  97.4861 57.2949 145.706
RightForeArm  46.3426 49.9108 9.81715
RightHand  -0.24729 -0.0210522 -5.37781
LeftUpLeg  -8.645 -5.45603 -8.10211
LeftLeg  53.0127 -72.4527 -52.8549
LeftFoot  7.20321 0.749569 -4.85908
LeftToes  -7.45818e-011 -3.37383e-011 1.08613e-011
673
root  -6.64923 39.59 10.0025 -23.0791 -76.6942 20.767
RightUpLeg  2.81675 17.8663 -0.763111
RightLeg  43.8582 8.88592 8.75159
RightFoot  43.4305 -12.0637 23.6875
RightToes  -5.8209e-011 0 -3.6325e-017
Spine  -13.8196 19.6061 32.5352
Spine1  4.87641 19.6507 -21.3485
HEad  14.4025 -45.509 -9.71927
LeftShoulder1  3.23573 -9.33459 -18.6625
LeftArm  -47.018 -34.0556 -25.1809
LeftForeArm  89.9158 -79.3885 -52.2783
LeftHand  -0.246645 0.021 5.37786
RightShoulder  3.41493 11.8905 15.408
RightArm  95.1704 57.3726 142.554
RightForeArm  46.1812 50.0635 9.89026
RightHand  -0.24729 -0.0210522 -5.37781
LeftUpLeg  -8.55657 -5.37721 -8.10918
LeftLeg  52.4444 -72.3931 -52.2769
LeftFoot  7.14021 0.747915 -4.86339
LeftToes  -7.45818e-011 -3.37383e-011 1.08613e-011
674
root  -6.64987 39.5915 9.98355 -23.7346 -76.9706 21.4212
RightUpLeg  2.75128 18.0054 -0.846831
RightLeg  43.9159 8.84456 8.72797
RightFoot  43.3942 -12.0785 23.7326
RightToes  -5.8209e-011 0 -3.6325e-017
Spine  -14.0134 19.3202 32.5407
Spine1  5.16184 19.3978 -21.503
HEad  14.0282 -44.6956 -9.61065
LeftShoulder1  3.33335 -9.59892 -18.9173
LeftArm  -44.5766 -33.1619 -27.1673
LeftForeArm  87.77 -79.0722 -50.1269
LeftHand  -0.246645 0.021 5.37786
RightShoulder  3.52142 11.9362 16.09
RightArm  92.8138 57.3225 139.406
RightForeArm  45.8422 50.1696 9.95728
RightHand  -0.24729 -0.0210522 -5.37781
LeftUpLeg  -8.53422 -5.28386 -8.09094
LeftLeg  51.8836 -72.298 -51.6919
LeftFoot  7.06271 0.742805 -4.84975
LeftToes  -7.45818e-011 -3.37383e-011 1.08613e-011
675
root  -6.6513 39.5935 9.96382 -24.2606 -77.2614 21.9663
RightUpLeg  2.66304 18.1477 -0.907412
RightLeg  43.951 8.81213 8.70637
RightFoot  43.3504 -12.1326 23.855
RightToes  -5.8209e-011 0 -3.6325e-017
Spine  -14.4054 18.9988 32.4457
Spine1  5.68141 19.0619 -21.4366
HEad  13.381 -43.8168 -9.21324
LeftShoulder1  3.42995 -9.77942 -19.3278
LeftArm  -42.3179 -32.1319 -28.8694
LeftForeArm  85.8251 -78.794 -48.5075
LeftHand  -0.246645 0.021 5.37786
RightShoulder  3.66985 12.0948 16.8733
RightArm  90.4943 57.2346 136.147
RightForeArm  45.5129 50.2888 10.0295
RightHand  -0.24729 -0.0210522 -5.37781
LeftUpLeg  -8.55219 -5.1572 -8.03218
LeftLeg  51.4577 -72.188 -51.2373
LeftFoot  6.98647 0.730982 -4.79415
LeftToes  -7.45818e-011 -3.37383e-011 1.08613e-011
